<svg width="1713" height="680" viewBox="0 0 1713 680" fill="none" xmlns="http://www.w3.org/2000/svg">
<path d="M23.0825 14.7285L3.03904 6.94972C2.26673 6.64999 1.39768 7.03309 1.09795 7.8054V7.8054C0.798225 8.5777 1.18133 9.44676 1.95363 9.74648L21.9971 17.5252L23.0825 14.7285Z" fill="#D9D9D9" fill-opacity="0.6"/>
<g filter="url(#filter0_f_1105_39)">
<path d="M180.954 73.9873C136.94 57.6635 94.8939 41.5638 64.0649 29.2298C33.2359 16.8959 16.1496 9.33816 16.5646 8.21917C16.9796 7.10018 34.862 12.5116 66.2779 23.263C97.6937 34.0145 140.07 49.2252 184.083 65.549L154.025 59.5971L180.954 73.9873Z" fill="#FAFAFA" fill-opacity="0.5"/>
</g>
<g filter="url(#filter1_f_1105_39)">
<path d="M184.775 90.8114C138.421 72.3928 94.1419 54.288 61.6769 40.4797C29.2119 26.6715 11.2208 18.2911 11.6615 17.182C12.1022 16.0728 30.9386 22.3259 64.0268 34.5656C97.1151 46.8052 141.745 64.0289 188.098 82.4475L140.846 69.7429L184.775 90.8114Z" fill="#FAFAFA" fill-opacity="0.5"/>
</g>
<g filter="url(#filter2_f_1105_39)">
<rect x="162.368" y="60.249" width="1630.7" height="18.1286" transform="rotate(20.7259 162.368 60.249)" fill="#F6F6F6"/>
</g>
<path d="M10.5916 23.0678C10.2619 22.9398 10.0243 22.6472 9.96677 22.2983L8.07601 10.8378C8.01667 10.4782 8.15772 10.1148 8.44413 9.8893L17.5709 2.70467C17.8488 2.48592 18.2216 2.43021 18.5513 2.55817L18.9613 2.7173C19.624 2.97447 19.8143 3.82146 19.3254 4.3374L12.4564 11.586C12.276 11.7763 12.1776 12.0298 12.1824 12.2919L12.3633 22.2765C12.3762 22.9872 11.6643 23.4841 11.0017 23.2269L10.5916 23.0678Z" fill="#D9D9D9" fill-opacity="0.54"/>
<defs>
<filter id="filter0_f_1105_39" x="12.5571" y="4.07462" width="175.526" height="73.9127" filterUnits="userSpaceOnUse" color-interpolation-filters="sRGB">
<feFlood flood-opacity="0" result="BackgroundImageFix"/>
<feBlend mode="normal" in="SourceGraphic" in2="BackgroundImageFix" result="shape"/>
<feGaussianBlur stdDeviation="2" result="effect1_foregroundBlur_1105_39"/>
</filter>
<filter id="filter1_f_1105_39" x="7.65381" y="13.056" width="184.444" height="81.7554" filterUnits="userSpaceOnUse" color-interpolation-filters="sRGB">
<feFlood flood-opacity="0" result="BackgroundImageFix"/>
<feBlend mode="normal" in="SourceGraphic" in2="BackgroundImageFix" result="shape"/>
<feGaussianBlur stdDeviation="2" result="effect1_foregroundBlur_1105_39"/>
</filter>
<filter id="filter2_f_1105_39" x="130.952" y="35.249" width="1581.58" height="644.056" filterUnits="userSpaceOnUse" color-interpolation-filters="sRGB">
<feFlood flood-opacity="0" result="BackgroundImageFix"/>
<feBlend mode="normal" in="SourceGraphic" in2="BackgroundImageFix" result="shape"/>
<feGaussianBlur stdDeviation="12.5" result="effect1_foregroundBlur_1105_39"/>
</filter>
</defs>
</svg>
